<?xml version="1.0" encoding="utf-8"?>
<svg version="1.1" xmlns:xlink="http://www.w3.org/1999/xlink" width="67px" height="59px" xmlns="http://www.w3.org/2000/svg">
  <defs>
    <filter x="654px" y="923px" width="67px" height="59px" filterUnits="userSpaceOnUse" id="filter1">
      <feOffset dx="1" dy="1" in="SourceAlpha" result="shadowOffsetInner" />
      <feGaussianBlur stdDeviation="2.5" in="shadowOffsetInner" result="shadowGaussian" />
      <feComposite in2="shadowGaussian" operator="atop" in="SourceAlpha" result="shadowComposite" />
      <feColorMatrix type="matrix" values="0 0 0 0 0  0 0 0 0 0  0 0 0 0 0  0 0 0 0.698039215686274 0  " in="shadowComposite" />
    </filter>
    <g id="widget2">
      <path d="M 686.5 927  C 702.46 927  715 937.78  715 951.5  C 715 965.22  702.46 976  686.5 976  C 670.54 976  658 965.22  658 951.5  C 658 937.78  670.54 927  686.5 927  Z " fill-rule="nonzero" fill="#ffffff" stroke="none" />
      <path d="M 686.5 927.5  C 702.18 927.5  714.5 938.06  714.5 951.5  C 714.5 964.94  702.18 975.5  686.5 975.5  C 670.82 975.5  658.5 964.94  658.5 951.5  C 658.5 938.06  670.82 927.5  686.5 927.5  Z " stroke-width="1" stroke="#ffffff" fill="none" />
    </g>
  </defs>
  <g transform="matrix(1 0 0 1 -654 -923 )">
    <use xlink:href="#widget2" filter="url(#filter1)" />
    <use xlink:href="#widget2" />
  </g>
</svg>