<?xml version="1.0" encoding="utf-8"?>
<svg version="1.1" xmlns:xlink="http://www.w3.org/1999/xlink" width="386px" height="56px" xmlns="http://www.w3.org/2000/svg">
  <defs>
    <filter x="57px" y="107px" width="386px" height="56px" filterUnits="userSpaceOnUse" id="filter10">
      <feOffset dx="0" dy="0" in="SourceAlpha" result="shadowOffsetInner" />
      <feGaussianBlur stdDeviation="1.5" in="shadowOffsetInner" result="shadowGaussian" />
      <feComposite in2="shadowGaussian" operator="atop" in="SourceAlpha" result="shadowComposite" />
      <feColorMatrix type="matrix" values="0 0 0 0 0.0117647058823529  0 0 0 0 0.705882352941176  0 0 0 0 0.96078431372549  0 0 0 1 0  " in="shadowComposite" />
    </filter>
    <g id="widget11">
      <path d="M 60.5 113  A 2.5 2.5 0 0 1 63 110.5 L 437 110.5  A 2.5 2.5 0 0 1 439.5 113 L 439.5 157  A 2.5 2.5 0 0 1 437 159.5 L 63 159.5  A 2.5 2.5 0 0 1 60.5 157 L 60.5 113  Z " fill-rule="nonzero" fill="#ffffff" stroke="none" fill-opacity="0" />
      <path d="M 60.5 113  A 2.5 2.5 0 0 1 63 110.5 L 437 110.5  A 2.5 2.5 0 0 1 439.5 113 L 439.5 157  A 2.5 2.5 0 0 1 437 159.5 L 63 159.5  A 2.5 2.5 0 0 1 60.5 157 L 60.5 113  Z " stroke-width="1" stroke="#03b4f5" fill="none" />
    </g>
  </defs>
  <g transform="matrix(1 0 0 1 -57 -107 )">
    <use xlink:href="#widget11" filter="url(#filter10)" />
    <use xlink:href="#widget11" />
  </g>
</svg>