<svg width="25" height="24" viewBox="0 0 25 24" fill="none" xmlns="http://www.w3.org/2000/svg">
<g clip-path="url(#clip0_2876_18840)">
<g clip-path="url(#clip1_2876_18840)">
<path d="M14.8964 3.94775L15.9222 2.40002L21.8487 6.39315L20.7694 7.80734L14.8964 3.94775ZM11.075 13.7808L10.6201 15.0457C9.55933 15.0457 9.2556 15.3267 9.71045 15.8886C10.0387 16.2939 10.5691 16.1534 11.3027 15.4667L12.44 14.6242L11.075 13.7808ZM15.4093 4.92934L19.7791 7.95711C19.7791 7.95711 17.9572 9.95413 17.8857 12.5831L12.7733 14.4304L12.44 14.2027L14.405 11.2445C14.5732 11.3048 14.7518 11.3354 14.9314 11.3354C15.7521 11.3354 16.4176 10.7094 16.4176 9.9379C16.4176 9.16543 15.7521 8.53994 14.9314 8.53994C14.1108 8.53994 13.4453 9.16589 13.4453 9.9379C13.4453 10.2912 13.5854 10.6135 13.8156 10.8601L11.9376 13.8364L11.2351 13.3649L11.2701 8.19033C11.2701 8.19033 13.9237 7.19251 15.4098 4.92934H15.4093Z" fill="#9EC8E8"/>
<path fill-rule="evenodd" clip-rule="evenodd" d="M6.07879 13.3714C6.07879 13.8163 5.867 14.2116 5.53875 14.4622L6.65286 18.1759C6.68969 18.1729 6.72692 18.1714 6.76451 18.1714C7.33094 18.1714 7.81717 18.5148 8.02636 19.0048L13.6267 17.6047C13.6234 17.5655 13.6217 17.5258 13.6217 17.4857C13.6217 16.7283 14.2357 16.1143 14.9931 16.1143C15.5354 16.1143 16.0041 16.429 16.2267 16.8858L19.6729 17.7474C19.8991 17.5828 20.1776 17.4857 20.4788 17.4857C21.2362 17.4857 21.8502 18.0997 21.8502 18.8571C21.8502 19.6146 21.2362 20.2286 20.4788 20.2286C19.7214 20.2286 19.1074 19.6146 19.1074 18.8571C19.1074 18.8171 19.1091 18.7774 19.1125 18.7382L16.2549 18.0238C16.0457 18.5137 15.5595 18.8571 14.9931 18.8571C14.6919 18.8571 14.4134 18.7601 14.1872 18.5955L7.99811 20.1428C7.77557 20.5995 7.30679 20.9143 6.76451 20.9143C6.00709 20.9143 5.39308 20.3003 5.39308 19.5429C5.39308 19.2327 5.49605 18.9466 5.66968 18.7168L4.47143 14.7226C3.82644 14.6108 3.33594 14.0484 3.33594 13.3714C3.33594 12.614 3.94995 12 4.70737 12C5.46479 12 6.07879 12.614 6.07879 13.3714ZM4.70737 13.92C5.01033 13.92 5.25594 13.6744 5.25594 13.3714C5.25594 13.0685 5.01033 12.8229 4.70737 12.8229C4.4044 12.8229 4.15879 13.0685 4.15879 13.3714C4.15879 13.6744 4.4044 13.92 4.70737 13.92ZM14.9931 18.0343C15.296 18.0343 15.5417 17.7887 15.5417 17.4857C15.5417 17.1827 15.296 16.9371 14.9931 16.9371C14.6901 16.9371 14.4445 17.1827 14.4445 17.4857C14.4445 17.7887 14.6901 18.0343 14.9931 18.0343ZM7.31308 19.5429C7.31308 19.8458 7.06748 20.0914 6.76451 20.0914C6.46154 20.0914 6.21594 19.8458 6.21594 19.5429C6.21594 19.2399 6.46154 18.9943 6.76451 18.9943C7.06748 18.9943 7.31308 19.2399 7.31308 19.5429ZM20.4788 19.4057C20.7818 19.4057 21.0274 19.1601 21.0274 18.8571C21.0274 18.5542 20.7818 18.3086 20.4788 18.3086C20.1758 18.3086 19.9302 18.5542 19.9302 18.8571C19.9302 19.1601 20.1758 19.4057 20.4788 19.4057Z" fill="#9EC8E8"/>
</g>
</g>
<defs>
<clipPath id="clip0_2876_18840">
<rect width="24" height="24" fill="white" transform="translate(0.25)"/>
</clipPath>
<clipPath id="clip1_2876_18840">
<rect width="19.2" height="19.2" fill="white" transform="translate(2.65039 2.40002)"/>
</clipPath>
</defs>
</svg>
