<svg t="1713356617273" class="icon" viewBox="0 0 1024 1024" version="1.1" xmlns="http://www.w3.org/2000/svg" p-id="14549" width="200" height="200"><path d="M872.533333 475.733333L776.533333 426.666667l96-49.066667c32-14.933333 32-59.733333 0-76.8l-341.333333-170.666667c-12.8-6.4-25.6-6.4-38.4 0l-341.333333 170.666667c-32 14.933333-32 59.733333 0 76.8l96 49.066667-96 49.066666c-32 14.933333-32 59.733333 0 76.8l93.866666 46.933334-93.866666 46.933333c-32 14.933333-32 59.733333 0 76.8l341.333333 170.666667c12.8 6.4 25.6 6.4 38.4 0l341.333333-170.666667c32-17.066667 32-61.866667 0-76.8l-93.866666-46.933333 93.866666-46.933334c32-14.933333 32-59.733333 0-76.8z m-341.333333 322.133334c-12.8 6.4-25.6 6.4-38.4 0l-226.133333-113.066667 74.666666-38.4 151.466667 76.8c12.8 6.4 25.6 6.4 38.4 0l151.466667-76.8 74.666666 38.4-226.133333 113.066667z m0-170.666667c-12.8 6.4-25.6 6.4-38.4 0l-226.133333-113.066667 76.8-38.4 149.333333 74.666667c12.8 6.4 25.6 6.4 38.4 0l149.333333-74.666667 76.8 38.4-226.133333 113.066667z m-27.733333-162.133333l-266.666667-119.466667 266.666667-125.866667c6.4-2.133333 12.8-2.133333 19.2 0l247.466666 117.333334-247.466666 130.133333c-6.4 0-14.933333 0-19.2-2.133333z" fill="#00b386" p-id="14550"></path></svg>