<?xml version="1.0" encoding="utf-8"?>
<svg version="1.1" xmlns:xlink="http://www.w3.org/1999/xlink" width="173px" height="485px" xmlns="http://www.w3.org/2000/svg">
  <defs>
    <linearGradient gradientUnits="userSpaceOnUse" x1="34.3482142857143" y1="-111.972222222222" x2="148.651785714286" y2="884.972222222222" id="LinearGradient51">
      <stop id="Stop52" stop-color="#00e3d2" offset="0" />
      <stop id="Stop53" stop-color="#3f77e9" offset="1" />
    </linearGradient>
  </defs>
  <g transform="matrix(1 0 0 1 -5 -144 )">
    <path d="M 5.5 157  A 12.5 12.5 0 0 1 18 144.5 L 165 144.5  A 12.5 12.5 0 0 1 177.5 157 L 177.5 616  A 12.5 12.5 0 0 1 165 628.5 L 18 628.5  A 12.5 12.5 0 0 1 5.5 616 L 5.5 157  Z " fill-rule="nonzero" fill="#2391ff" stroke="none" fill-opacity="0.0980392156862745" />
    <path d="M 5.5 157  A 12.5 12.5 0 0 1 18 144.5 L 165 144.5  A 12.5 12.5 0 0 1 177.5 157 L 177.5 616  A 12.5 12.5 0 0 1 165 628.5 L 18 628.5  A 12.5 12.5 0 0 1 5.5 616 L 5.5 157  Z " stroke-width="1" stroke="url(#LinearGradient51)" fill="none" />
  </g>
</svg>